<svg id="Layer_1" data-name="Layer 1" xmlns="http://www.w3.org/2000/svg" width="299.68" height="119" viewBox="0 0 299.68 119"><title>controls</title><g id="play_pause" data-name="play pause"><g id="play"><g id="Polygon"><path d="M16.48,8.49a0.56,0.56,0,0,1,0,1l-11.38,7A0.51,0.51,0,0,1,4.25,16V2A0.51,0.51,0,0,1,5.1,1.53Z" transform="translate(0 -0.01)" fill="#58f406"/></g></g></g><g id="pause"><rect x="23" y="1" width="4.2" height="16" rx="1" ry="1" fill="#fff"/><rect x="32.8" y="1" width="4.2" height="16" rx="1" ry="1" fill="#fff"/></g><g id="fullscreen"><g id="enter"><path d="M81,1.39a1,1,0,0,1,1-1h5.41c0.55,0,.68.32,0.29,0.71l-6,6C81.31,7.49,81,7.36,81,6.81V1.39Z" transform="translate(0 -0.01)" fill="#fff"/><path d="M81,17.18a1,1,0,0,0,1,1h5.41c0.55,0,.68-0.32.29-0.71l-6-6c-0.39-.39-0.71-0.26-0.71.29v5.42Z" transform="translate(0 -0.01)" fill="#fff"/><path d="M98.8,1.39a1,1,0,0,0-1-1H92.38c-0.55,0-.68.32-0.29,0.71l6,6c0.39,0.39.71,0.26,0.71-.29V1.39Z" transform="translate(0 -0.01)" fill="#fff"/><path d="M98.8,17.18a1,1,0,0,1-1,1H92.38c-0.55,0-.68-0.32-0.29-0.71l6-6c0.39-.39.71-0.26,0.71,0.29v5.42Z" transform="translate(0 -0.01)" fill="#fff"/></g></g><g id="exit"><path d="M112.7,5a1,1,0,0,0,1,1h4.1c0.55,0,.68-0.32.29-0.71l-4.68-4.68c-0.39-.39-0.71-0.26-0.71.29V5Z" transform="translate(0 -0.01)" fill="#fff"/><path d="M105.6,6a1,1,0,0,0,1-1V0.89c0-.55-0.32-0.68-0.71-0.29l-4.72,4.68c-0.39.39-.26,0.71,0.29,0.71Z" transform="translate(0 -0.01)" fill="#fff"/><path d="M106.6,13.08a1,1,0,0,0-1-1h-4.1c-0.55,0-.68.32-0.29,0.71l4.68,4.68c0.39,0.39.71,0.26,0.71-.29v-4.1Z" transform="translate(0 -0.01)" fill="#fff"/><path d="M113.7,12.08a1,1,0,0,0-1,1v4.1c0,0.55.32,0.68,0.71,0.29l4.68-4.68c0.39-.39.26-0.71-0.29-0.71h-4.1Z" transform="translate(0 -0.01)" fill="#fff"/></g><g id="volume"><path d="M67,5.78a3.51,3.51,0,0,1-1.8.6H62a1,1,0,0,0-1,1v5.73a1,1,0,0,0,1,1h3.15a6.28,6.28,0,0,1,1,0,8.5,8.5,0,0,0,.81.63l3.54,2.6c0.44,0.33.81,0.14,0.81-.41V3.51c0-.55-0.36-0.73-0.8-0.4Z" transform="translate(0 -0.01)" fill="#fff"/><g id="volume-2"><g id="soundbars"><path d="M73.89,2.51s3.95-.81,3.87,7.73S73.89,18,73.89,18" transform="translate(0 -0.01)" fill="none" stroke="#fff" stroke-linecap="round" stroke-width="1.5"/><path d="M72.6,6.39s2.63-.38,2.57,3.85-2.58,3.86-2.58,3.86" transform="translate(0 -0.01)" fill="none" stroke="#fff" stroke-linecap="round" stroke-width="1.5"/></g></g></g><g id="closed_captions" data-name="closed captions"><path d="M128.7,8.59c-6.17-4.21-6.46,7.77,0,3.92" transform="translate(0 -0.01)" fill="none" stroke="#fff"/><path d="M135.23,8.59c-6.17-4.21-6.46,7.77,0,3.92" transform="translate(0 -0.01)" fill="none" stroke="#fff"/><path d="M122.17,3.36h15.69V16.44H122.17V3.36ZM120.85,2V17.74h18.32V2H120.85Z" transform="translate(0 -0.01)" fill="#fff"/></g><g id="muted"><path d="M47,5.78a3.51,3.51,0,0,1-1.8.6H42a1,1,0,0,0-1,1v5.73a1,1,0,0,0,1,1h3.15a6.28,6.28,0,0,1,1,0,8.5,8.5,0,0,0,.81.63l3.54,2.6c0.44,0.33.81,0.14,0.81-.41V3.51c0-.55-0.36-0.73-0.8-0.4Z" transform="translate(0 -0.01)" fill="#fff"/><line x1="52.83" y1="6.97" x2="58.22" y2="12.35" fill="none" stroke="#fff" stroke-linecap="round" stroke-width="2"/><line x1="52.83" y1="12.35" x2="58.22" y2="6.97" fill="none" stroke="#fff" stroke-linecap="round" stroke-width="2"/></g><g id="skip_forward" data-name="skip forward"><g id="play_pause-2" data-name="play pause-2"><g id="play-2"><path id="Polygon-2" d="M192.17,2.17l-4.33,2.16V0Z" transform="translate(0 -0.01)" fill="#fff"/></g></g><g id="play_pause-3" data-name="play pause-3"><g id="play-3"><path id="Polygon-3" d="M194.9,2.17l-4.33,2.16V0Z" transform="translate(0 -0.01)" fill="#fff"/></g></g><path d="M190,2.17a8.15,8.15,0,0,0-8.16,8.14s0,0,0,0" transform="translate(0 -0.01)" fill="none" stroke="#fff" stroke-width="2"/><path d="M181.85,9.84A8.15,8.15,0,0,0,190,18h0" transform="translate(0 -0.01)" fill="none" stroke="#fff" stroke-width="2"/><path d="M189.63,18a8.15,8.15,0,0,0,8.16-8.14s0,0,0,0" transform="translate(0 -0.01)" fill="none" stroke="#fff" stroke-width="2"/></g><g id="skipback"><path d="M162.69,9.66a8.15,8.15,0,0,0,8.14,8.16h0" transform="translate(0 -0.01)" fill="none" stroke="#fff" stroke-width="2"/><path d="M170.37,17.81a8.15,8.15,0,0,0,8.16-8.14s0,0,0,0" transform="translate(0 -0.01)" fill="none" stroke="#fff" stroke-width="2"/><path d="M178.53,10a8.15,8.15,0,0,0-8.14-8.16h0" transform="translate(0 -0.01)" fill="none" stroke="#fff" stroke-width="2"/><g id="play_pause-4" data-name="play pause-4"><g id="play-4"><path id="Polygon-4" d="M166.59,2.17l4.32,2.16V0Z" transform="translate(0 -0.01)" fill="#fff"/></g></g><g id="play_pause-5" data-name="play pause-5"><g id="play-5"><path id="Polygon-5" d="M163.87,2.17l4.3,2.16V0Z" transform="translate(0 -0.01)" fill="#fff"/></g></g></g><g id="close_captions" data-name="close captions"><rect x="141.17" y="3" width="18" height="14" rx="2" ry="2" fill="#fff"/><path d="M146.36,13.79a2.69,2.69,0,0,1-2.14-1A3.87,3.87,0,0,1,144.34,8c0.51-.56,2-1.65,4.64.16L148.42,9c-1.43-1-2.62-1.09-3.34-.31a2.89,2.89,0,0,0-.08,3.47c0.7,0.86,1.92.83,3.45-.08L149,12.94A5.13,5.13,0,0,1,146.36,13.79Z" transform="translate(0 -0.01)" fill="#231f20"/><path d="M153.9,13.79a2.69,2.69,0,0,1-2.14-1A3.87,3.87,0,0,1,151.88,8c0.51-.56,2-1.65,4.64.16L156,9c-1.43-1-2.62-1.09-3.34-.31a2.89,2.89,0,0,0-.08,3.47c0.7,0.86,1.92.83,3.45-.08l0.51,0.86A5.13,5.13,0,0,1,153.9,13.79Z" transform="translate(0 -0.01)" fill="#231f20"/></g><path d="M218.63,9.39a1.35,1.35,0,0,0-1-1.24l-1.85-.46a0.7,0.7,0,0,1-.46-1.1l1-1.64a1.35,1.35,0,0,0-.15-1.58h0a1.35,1.35,0,0,0-1.56-.19l-1.64,1a0.7,0.7,0,0,1-1.1-.46l-0.46-1.85a1.35,1.35,0,0,0-1.24-1h0a1.35,1.35,0,0,0-1.24,1l-0.46,1.85a0.7,0.7,0,0,1-1.1.46l-1.64-1a1.35,1.35,0,0,0-1.56.19h0A1.35,1.35,0,0,0,204,4.93l1,1.64a0.7,0.7,0,0,1-.46,1.1l-1.85.46a1.35,1.35,0,0,0-1,1.24h0a1.35,1.35,0,0,0,1,1.24l1.85,0.46a0.7,0.7,0,0,1,.46,1.1l-1,1.64a1.35,1.35,0,0,0,.19,1.56h0a1.35,1.35,0,0,0,1.56.19l1.64-1a0.7,0.7,0,0,1,1.1.46l0.46,1.85a1.35,1.35,0,0,0,1.24,1h0a1.35,1.35,0,0,0,1.24-1L211.87,15a0.7,0.7,0,0,1,1.1-.46l1.64,1a1.35,1.35,0,0,0,1.56-.19h0a1.35,1.35,0,0,0,.19-1.56l-1-1.64a0.7,0.7,0,0,1,.46-1.1l1.85-.46a1.35,1.35,0,0,0,1-1.24Zm-5.68,0a2.82,2.82,0,1,1-2.8-2.84h0a2.82,2.82,0,0,1,2.78,2.82v0Z" transform="translate(0 -0.01)" fill="#fff"/><rect x="223" y="2.83" width="14" height="14" rx="2" ry="2" fill="#fff"/><g id="loop"><path d="M254.22,6.53a5.72,5.72,0,1,1-8.7-.27L243.9,4.64a8,8,0,1,0,11.94.26Z" transform="translate(0 -0.01)" fill="#fff"/><g id="play_pause-6" data-name="play pause-6"><g id="play-6"><g id="Polygon-6"><path d="M251.3,3.37a0.72,0.72,0,0,1,.85-0.85l5.52,0.77c0.54,0.08.67,0.46,0.28,0.84l-5,5c-0.39.39-.77,0.26-0.84-0.28Z" transform="translate(0 -0.01)" fill="#fff"/></g></g></g></g><g id="loop_off" data-name="loop off" opacity="0.5"><path d="M274.38,6.78a5.72,5.72,0,1,1-8.7-.27l-1.62-1.62A8,8,0,1,0,276,5.15Z" transform="translate(0 -0.01)" fill="#fff"/><g id="play_pause-7" data-name="play pause-7"><g id="play-7"><g id="Polygon-7"><path d="M271.46,3.62a0.72,0.72,0,0,1,.85-0.85l5.52,0.77c0.54,0.08.67,0.46,0.28,0.84l-5,5c-0.39.39-.77,0.26-0.84-0.28Z" transform="translate(0 -0.01)" fill="#fff"/></g></g></g></g><g id="Polygon-8" opacity="0.75"><path d="M60.27,77a1.06,1.06,0,0,1,0,2L30,96.5a1.05,1.05,0,0,1-1.73-1v-35a1.06,1.06,0,0,1,1.73-1Z" transform="translate(0 -0.01)" fill="#52e207"/></g><path id="Ellipse" d="M2.5,79A37.5,37.5,0,1,1,40,116.51,37.5,37.5,0,0,1,2.5,79h0Z" transform="translate(0 -0.01)" fill="#52e207" stroke="#fff" stroke-width="5" opacity="0.75" style="isolation:isolate"/><g id="Polygon2"><path d="M140.27,77a1.06,1.06,0,0,1,0,2L110,96.5a1.05,1.05,0,0,1-1.73-1v-35a1.06,1.06,0,0,1,1.73-1Z" transform="translate(0 -0.01)" fill="#53ea03"/></g><path id="Ellipse2" d="M82.5,79a37.5,37.5,0,1,1,37.5,37.5A37.5,37.5,0,0,1,82.5,79Z" transform="translate(0 -0.01)" fill="#53ea03" stroke="#fff" stroke-width="5"/><g id="Loading"><circle cx="201.88" cy="47.12" r="8.13" fill="#fff"/><circle cx="233.88" cy="79" r="5" fill="#fff" opacity="0.4" style="isolation:isolate"/><circle cx="201.88" cy="110.87" r="6" fill="#fff" opacity="0.6" style="isolation:isolate"/><circle cx="170.13" cy="79" r="7" fill="#fff" opacity="0.8" style="isolation:isolate"/><circle cx="178.25" cy="56.33" r="7.5" fill="#fff" opacity="0.9" style="isolation:isolate"/><circle cx="226.33" cy="56.08" r="4.5" fill="#fff" opacity="0.3" style="isolation:isolate"/><circle cx="225.75" cy="102.75" r="5.5" fill="#fff" opacity="0.5" style="isolation:isolate"/><circle cx="178.25" cy="102.75" r="6.5" fill="#fff" opacity="0.7" style="isolation:isolate"/></g><g id="Guides"><g id="play_pause-8" data-name="play pause-8"><g id="play-8"><g id="Polygon-9"><path d="M298.81,9.55a0.79,0.79,0,0,1-1.1.64l-4.86-1.82c-0.51-.19-0.55-0.58-0.07-0.85L299,4c0.48-.27.79-0.06,0.7,0.49Z" transform="translate(0 -0.01)" fill="#fff"/></g></g></g><path id="replay" d="M290.17,16.09a6.22,6.22,0,0,1-2.9-.71,5.94,5.94,0,0,1-3.2-5.24,6.11,6.11,0,0,1,11.87-1.89L296,8.1l2.13,1.06a8.1,8.1,0,0,0-16.12,1,7.93,7.93,0,0,0,4.26,7,8.22,8.22,0,0,0,3.83,1,8.13,8.13,0,0,0,6.57-3.32l-1.8-.93A6.14,6.14,0,0,1,290.17,16.09Z" transform="translate(0 -0.01)" fill="#fff"/></g></svg>